<?xml version="1.0" encoding="UTF-8" standalone="no"?>
<!-- Created with Inkscape (http://www.inkscape.org/) -->

<svg
   xmlns:dc="http://purl.org/dc/elements/1.1/"
   xmlns:cc="http://creativecommons.org/ns#"
   xmlns:rdf="http://www.w3.org/1999/02/22-rdf-syntax-ns#"
   xmlns:svg="http://www.w3.org/2000/svg"
   xmlns="http://www.w3.org/2000/svg"
   xmlns:sodipodi="http://sodipodi.sourceforge.net/DTD/sodipodi-0.dtd"
   xmlns:inkscape="http://www.inkscape.org/namespaces/inkscape"
   width="1920"
   height="1080"
   id="svg2"
   version="1.1"
   inkscape:version="0.48.5 r10040"
   sodipodi:docname="New document 1">
  <defs
     id="defs4" />
  <sodipodi:namedview
     id="base"
     pagecolor="#ffffff"
     bordercolor="#666666"
     borderopacity="1.0"
     inkscape:pageopacity="0.0"
     inkscape:pageshadow="2"
     inkscape:zoom="0.35"
     inkscape:cx="937.42626"
     inkscape:cy="520"
     inkscape:document-units="px"
     inkscape:current-layer="layer3"
     showgrid="false"
     inkscape:window-width="1362"
     inkscape:window-height="725"
     inkscape:window-x="0"
     inkscape:window-y="20"
     inkscape:window-maximized="0" />
  <metadata
     id="metadata7">
    <rdf:RDF>
      <cc:Work
         rdf:about="">
        <dc:format>image/svg+xml</dc:format>
        <dc:type
           rdf:resource="http://purl.org/dc/dcmitype/StillImage" />
        <dc:title></dc:title>
      </cc:Work>
    </rdf:RDF>
  </metadata>
  <g
     inkscape:label="Layer 1"
     inkscape:groupmode="layer"
     id="layer1"
     transform="translate(0,27.637817)" />
  <g
     inkscape:groupmode="layer"
     id="layer2"
     inkscape:label="Background"
     style="display:inline"
     sodipodi:insensitive="true">
    <rect
       style="fill:#141413;fill-opacity:1"
       id="rect3281"
       width="1920"
       height="1080"
       x="0"
       y="0" />
  </g>
  <g
     inkscape:groupmode="layer"
     id="layer3"
     inkscape:label="FreeBSD"
     style="display:inline">
    <g
       style="fill:#ff2c4b;fill-opacity:1"
       id="g3128"
       transform="matrix(3.5101802,0,0,3.5101802,546.62994,268.68553)">
      <path
         style="fill:#ff2c4b;fill-opacity:1"
         inkscape:connector-curvature="0"
         d="m 192.1,5 c 8.1,8.1 -14.3,43.5 -18.1,47.3 -3.8,3.8 -13.4,0.3 -21.4,-7.8 C 144.5,36.4 141.1,26.8 144.8,23.1 148.6,19.3 184,-3.1 192.1,5 z"
         id="path3130" />
      <path
         style="fill:#ff2c4b;fill-opacity:1"
         inkscape:connector-curvature="0"
         d="M 79,13.5 C 66.7,6.5 49.2,-1.3 43.6,4.3 37.9,10 46,27.9 53,40.2 59.3,29.3 68.3,20.1 79,13.5 z"
         id="path3132" />
      <path
         style="fill:#ff2c4b;fill-opacity:1"
         inkscape:connector-curvature="0"
         d="m 179.8,49.5 c 1.1,3.8 0.9,7 -0.9,8.9 -4.3,4.3 -15.9,-0.3 -26.4,-10.2 -0.7,-0.7 -1.5,-1.3 -2.2,-2 -3.8,-3.8 -6.7,-7.8 -8.6,-11.5 -3.7,-6.6 -4.6,-12.4 -1.8,-15.1 1.5,-1.5 3.9,-1.9 6.9,-1.4 1.9,-1.2 4.2,-2.6 6.7,-4 C 143.4,8.9 131.9,5.9 119.7,5.9 79.2,5.8 46.5,38.6 46.5,79 c 0,40.4 32.8,73.2 73.2,73.2 40.4,0 73.2,-32.8 73.2,-73.2 0,-13.1 -3.4,-25.3 -9.4,-35.9 -1.3,2.4 -2.6,4.5 -3.7,6.4 z"
         id="path3134" />
    </g>
  </g>
</svg>
